<svg width="19" height="19" viewBox="0 0 19 19" fill="none" xmlns="http://www.w3.org/2000/svg">
<g id="simple-line-icons:calender" clip-path="url(#clip0_75_65)">
<path id="Vector" d="M17.5351 2.34555L12.9871 2.34557V1.21355C12.9871 0.899726 12.733 0.645546 12.4191 0.645546C12.1053 0.645546 11.8511 0.899726 11.8511 1.21355V2.34529H7.30714V1.21355C7.30714 0.899726 7.05296 0.645546 6.73914 0.645546C6.42532 0.645546 6.17114 0.899726 6.17114 1.21355V2.34529H1.63112C1.00376 2.34529 0.495117 2.85393 0.495117 3.48129V17.6813C0.495117 18.3086 1.00376 18.8173 1.63112 18.8173H17.5351C18.1625 18.8173 18.6711 18.3086 18.6711 17.6813V3.48129C18.6711 2.8542 18.1625 2.34555 17.5351 2.34555ZM17.5351 17.6813H1.63112V3.48129H6.17114V4.05355C6.17114 4.36735 6.42532 4.62155 6.73914 4.62155C7.05296 4.62155 7.30714 4.36735 7.30714 4.05355V3.48157H11.8511V4.05383C11.8511 4.36765 12.1053 4.62183 12.4191 4.62183C12.733 4.62183 12.9871 4.36765 12.9871 4.05383V3.48157H17.5351V17.6813ZM13.5591 9.72955H14.6951C15.0087 9.72955 15.2631 9.47509 15.2631 9.16155V8.02555C15.2631 7.71202 15.0087 7.45755 14.6951 7.45755H13.5591C13.2456 7.45755 12.9911 7.71202 12.9911 8.02555V9.16155C12.9911 9.47509 13.2456 9.72955 13.5591 9.72955ZM13.5591 14.2733H14.6951C15.0087 14.2733 15.2631 14.0191 15.2631 13.7053V12.5693C15.2631 12.2557 15.0087 12.0013 14.6951 12.0013H13.5591C13.2456 12.0013 12.9911 12.2557 12.9911 12.5693V13.7053C12.9911 14.0194 13.2456 14.2733 13.5591 14.2733ZM10.1511 12.0013H9.01512C8.70158 12.0013 8.44712 12.2557 8.44712 12.5693V13.7053C8.44712 14.0191 8.70158 14.2733 9.01512 14.2733H10.1511C10.4647 14.2733 10.7191 14.0191 10.7191 13.7053V12.5693C10.7191 12.256 10.4647 12.0013 10.1511 12.0013ZM10.1511 7.45755H9.01512C8.70158 7.45755 8.44712 7.71202 8.44712 8.02555V9.16155C8.44712 9.47509 8.70158 9.72955 9.01512 9.72955H10.1511C10.4647 9.72955 10.7191 9.47509 10.7191 9.16155V8.02555C10.7191 7.71173 10.4647 7.45755 10.1511 7.45755ZM5.60712 7.45755H4.47112C4.15758 7.45755 3.90312 7.71202 3.90312 8.02555V9.16155C3.90312 9.47509 4.15758 9.72955 4.47112 9.72955H5.60712C5.92065 9.72955 6.17512 9.47509 6.17512 9.16155V8.02555C6.17512 7.71173 5.92065 7.45755 5.60712 7.45755ZM5.60712 12.0013H4.47112C4.15758 12.0013 3.90312 12.2557 3.90312 12.5693V13.7053C3.90312 14.0191 4.15758 14.2733 4.47112 14.2733H5.60712C5.92065 14.2733 6.17512 14.0191 6.17512 13.7053V12.5693C6.17512 12.256 5.92065 12.0013 5.60712 12.0013Z" fill="#CCFF00"/>
</g>
<defs>
<clipPath id="clip0_75_65">
<rect width="18.176" height="18.176" fill="white" transform="translate(0.495117 0.643929)"/>
</clipPath>
</defs>
</svg>
