<svg width="48" height="48" viewBox="0 0 48 48" fill="none" xmlns="http://www.w3.org/2000/svg">
<g id="ic:sharp-share">
<path id="Vector" d="M35.4757 31.8739C34.0008 31.8739 32.6812 32.4561 31.672 33.3682L17.8351 25.3144C17.9321 24.868 18.0097 24.4217 18.0097 23.9559C18.0097 23.4902 17.9321 23.0438 17.8351 22.5975L31.5168 14.6213C32.5647 15.5917 33.9426 16.1933 35.4757 16.1933C38.6972 16.1933 41.2977 13.5928 41.2977 10.3713C41.2977 7.14976 38.6972 4.54927 35.4757 4.54927C32.2542 4.54927 29.6537 7.14976 29.6537 10.3713C29.6537 10.837 29.7313 11.2834 29.8284 11.7297L16.1467 19.7059C15.0987 18.7355 13.7208 18.1339 12.1877 18.1339C8.96622 18.1339 6.36572 20.7344 6.36572 23.9559C6.36572 27.1774 8.96622 29.7779 12.1877 29.7779C13.7208 29.7779 15.0987 29.1763 16.1467 28.206L29.9642 36.2792C29.8672 36.6867 29.809 37.1137 29.809 37.5406C29.809 40.6651 32.3512 43.2073 35.4757 43.2073C38.6002 43.2073 41.1425 40.6651 41.1425 37.5406C41.1425 34.4161 38.6002 31.8739 35.4757 31.8739Z" fill="white"/>
</g>
</svg>
