<svg width="13" height="13" viewBox="0 0 13 13" fill="none" xmlns="http://www.w3.org/2000/svg">
<path d="M6.50016 1.08328C3.521 1.08328 1.0835 3.52078 1.0835 6.49995C1.0835 9.47912 3.521 11.9166 6.50016 11.9166C9.47933 11.9166 11.9168 9.47912 11.9168 6.49995C11.9168 3.52078 9.47933 1.08328 6.50016 1.08328ZM6.50016 10.8333C4.11141 10.8333 2.16683 8.8887 2.16683 6.49995C2.16683 4.1112 4.11141 2.16662 6.50016 2.16662C8.88891 2.16662 10.8335 4.1112 10.8335 6.49995C10.8335 8.8887 8.88891 10.8333 6.50016 10.8333ZM6.771 3.79162H5.9585V7.04162L8.77516 8.77495L9.2085 8.07078L6.771 6.60828V3.79162Z" fill="#CCFF00"/>
</svg>
